# xmcd CD database file
#
# Track frame offsets:
#	182
#	8892
#	27105
#	42185
#	55272
#	66575
#	77882
#	85707
#	100817
#	120340
#	133530
#	152417
#	162717
#	172800
#	188212
#	214890
#	231832
#	252860
#	269900
#	286802
#	302095
#	320480
#
# Disc length: 4519 seconds
#
# Revision: 0
# Processed by: cddbd v1.5.2PL0 Copyright (c) Steve Scherf et al.
# Submitted via: CDex 1.70beta2
#
DISCID=2f11a516
DTITLE=Marion  Williams - Spirituals
DYEAR=1989
DGENRE=Jazz
TTITLE0=When Was Jesus Born
TTITLE1=Amazing Grace
TTITLE2=I'm Looking To  Jesus
TTITLE3=Packin' Up
TTITLE4=He's Got The Whole World In His Hands
TTITLE5=O Come , All Ye Faithful
TTITLE6=Joy To The World
TTITLE7=(There'll Be) Peace In The Valley
TTITLE8=Somebody Bigger Than You And I
TTITLE9=He'll Understand
TTITLE10=Swing Low, Sweet Chariot
TTITLE11=Michael Row The Boat Ashore
TTITLE12=Great Big God
TTITLE13=Blowin' In The Wind
TTITLE14=Without Love
TTITLE15=Even Me 
TTITLE16=The Exodus Song
TTITLE17=Ain't It A Shame
TTITLE18=Without A Song
TTITLE19=What Goes Around
TTITLE20=The Eagle And Me
TTITLE21=The Day Is Past And Gone
EXTD=YEAR: 1989
EXTT0=
EXTT1=
EXTT2=
EXTT3=
EXTT4=
EXTT5=
EXTT6=
EXTT7=
EXTT8=
EXTT9=
EXTT10=
EXTT11=
EXTT12=
EXTT13=
EXTT14=
EXTT15=
EXTT16=
EXTT17=
EXTT18=
EXTT19=
EXTT20=
EXTT21=
PLAYORDER=
